<svg width="29" height="28" viewBox="0 0 29 28" fill="none" xmlns="http://www.w3.org/2000/svg">
<ellipse cx="14.5" cy="14" rx="14.5" ry="14" fill="#4267B2"/>
<path d="M10.6016 13C10.6016 12.7721 10.5641 12.5736 10.4893 12.4043C10.4144 12.2318 10.3086 12.0837 10.1719 11.96C10.0384 11.8363 9.87728 11.7354 9.68848 11.6572C9.49967 11.5758 9.29297 11.5124 9.06836 11.4668C8.84375 11.418 8.60286 11.3854 8.3457 11.3691C8.0918 11.3496 7.82975 11.3398 7.55957 11.3398C7.4847 11.3398 7.41634 11.3398 7.35449 11.3398C7.29264 11.3398 7.23405 11.3431 7.17871 11.3496L7.09082 14.6699C7.21452 14.696 7.34961 14.7139 7.49609 14.7236C7.64258 14.7334 7.79395 14.7383 7.9502 14.7383C8.14225 14.7383 8.34082 14.7269 8.5459 14.7041C8.75098 14.6813 8.95117 14.6439 9.14648 14.5918C9.34505 14.5397 9.53223 14.4714 9.70801 14.3867C9.88379 14.2988 10.0368 14.1914 10.167 14.0645C10.3005 13.9342 10.4062 13.7812 10.4844 13.6055C10.5625 13.4297 10.6016 13.2279 10.6016 13ZM11.4121 16.0908C11.4121 16.0973 11.4137 16.1152 11.417 16.1445C11.4202 16.1706 11.4219 16.2096 11.4219 16.2617C11.4219 16.5254 11.3812 16.7695 11.2998 16.9941C11.2217 17.2188 11.1094 17.4124 10.9629 17.5752C10.8164 17.7347 10.639 17.86 10.4307 17.9512C10.2223 18.0423 9.98958 18.0879 9.73242 18.0879H9.71777C9.48014 18.0814 9.27018 18.0423 9.08789 17.9707C8.90885 17.8991 8.75098 17.8047 8.61426 17.6875C8.48079 17.5671 8.36849 17.4271 8.27734 17.2676C8.1862 17.1081 8.11296 16.9372 8.05762 16.7549C8.00228 16.5693 7.96159 16.3773 7.93555 16.1787C7.91276 15.9801 7.90137 15.7832 7.90137 15.5879C7.90137 15.5293 7.90299 15.4723 7.90625 15.417C7.90951 15.3584 7.91113 15.3063 7.91113 15.2607C7.76465 15.2607 7.62142 15.2542 7.48145 15.2412C7.34473 15.2282 7.21126 15.2119 7.08105 15.1924L7.00781 17.7217C7.00781 17.7998 6.98177 17.8617 6.92969 17.9072C6.88086 17.9495 6.82064 17.9707 6.74902 17.9707C6.74577 17.9707 6.67904 17.9723 6.54883 17.9756C6.42188 17.9756 6.25749 17.9788 6.05566 17.9854C5.85384 17.9919 5.63086 18.0033 5.38672 18.0195C5.14258 18.0358 4.90332 18.0586 4.66895 18.0879H4.63965C4.56478 18.0879 4.50293 18.0618 4.4541 18.0098C4.40527 17.9609 4.38086 17.904 4.38086 17.8389C4.38086 17.7738 4.40039 17.7168 4.43945 17.668C4.48177 17.6191 4.53548 17.5898 4.60059 17.5801C4.72103 17.5638 4.8431 17.5508 4.9668 17.541C5.09375 17.5312 5.21745 17.5215 5.33789 17.5117L5.4502 11.4912C5.20931 11.5303 5.02702 11.5645 4.90332 11.5938C4.77962 11.623 4.71452 11.6377 4.70801 11.6377C4.68522 11.654 4.66243 11.6621 4.63965 11.6621C4.56478 11.6621 4.50293 11.6361 4.4541 11.584C4.40527 11.5319 4.38086 11.4701 4.38086 11.3984C4.38086 11.3431 4.39714 11.2943 4.42969 11.252C4.46224 11.2064 4.50618 11.1755 4.56152 11.1592C4.57129 11.1559 4.63965 11.1364 4.7666 11.1006C4.89355 11.0648 5.08073 11.0273 5.32812 10.9883C5.57878 10.9492 5.88802 10.9134 6.25586 10.8809C6.62695 10.8483 7.06152 10.832 7.55957 10.832C7.87858 10.8483 8.1862 10.8711 8.48242 10.9004C8.7819 10.9297 9.06348 10.9753 9.32715 11.0371C9.59082 11.0957 9.83171 11.1755 10.0498 11.2764C10.2679 11.374 10.4551 11.501 10.6113 11.6572C10.7708 11.8135 10.8929 12.0023 10.9775 12.2236C11.0654 12.4417 11.1094 12.7005 11.1094 13C11.1094 13.2376 11.0719 13.4622 10.9971 13.6738C10.9255 13.8822 10.8245 14.0726 10.6943 14.2451C10.5641 14.4144 10.4062 14.5625 10.2207 14.6895C10.0384 14.8132 9.83822 14.9108 9.62012 14.9824C9.61361 15.0573 9.60872 15.1338 9.60547 15.2119C9.60221 15.29 9.60059 15.3698 9.60059 15.4512C9.60059 15.5195 9.60221 15.6156 9.60547 15.7393C9.60872 15.863 9.61686 15.998 9.62988 16.1445C9.6429 16.291 9.66243 16.4408 9.68848 16.5938C9.71777 16.7467 9.75521 16.8867 9.80078 17.0137C9.84961 17.1374 9.90983 17.2399 9.98145 17.3213C10.0531 17.3994 10.1393 17.4385 10.2402 17.4385C10.3704 17.4385 10.4779 17.3945 10.5625 17.3066C10.6471 17.2188 10.7155 17.113 10.7676 16.9893C10.8197 16.8623 10.8555 16.7321 10.875 16.5986C10.8978 16.4652 10.9092 16.3529 10.9092 16.2617C10.9092 16.2259 10.9076 16.1966 10.9043 16.1738C10.901 16.151 10.8994 16.1299 10.8994 16.1104C10.8994 16.0355 10.9255 15.9753 10.9775 15.9297C11.0329 15.8841 11.0931 15.8613 11.1582 15.8613C11.2233 15.8613 11.2803 15.8841 11.3291 15.9297C11.3779 15.972 11.4056 16.0257 11.4121 16.0908ZM18.2725 12.8389C18.2725 12.8486 18.2741 12.8617 18.2773 12.8779C18.2806 12.891 18.2822 12.9056 18.2822 12.9219C18.2822 12.9902 18.2546 13.0505 18.1992 13.1025C18.1471 13.1546 18.0885 13.1807 18.0234 13.1807C17.9714 13.1807 17.9225 13.1644 17.877 13.1318C17.8346 13.0993 17.8037 13.0553 17.7842 13C17.7419 12.8763 17.7012 12.7445 17.6621 12.6045C17.623 12.4613 17.5872 12.3213 17.5547 12.1846C17.5254 12.0479 17.4977 11.9193 17.4717 11.7988C17.4456 11.6784 17.4261 11.5758 17.4131 11.4912C17.2275 11.501 17.016 11.5091 16.7783 11.5156C16.5407 11.5189 16.2852 11.5205 16.0117 11.5205L15.8506 17.5508C16.1175 17.5605 16.3747 17.5801 16.6221 17.6094C16.6937 17.6159 16.749 17.6436 16.7881 17.6924C16.8304 17.738 16.8516 17.7933 16.8516 17.8584C16.8516 17.9398 16.8239 18.0033 16.7686 18.0488C16.7165 18.0977 16.6611 18.1221 16.6025 18.1221H16.5732C16.3096 18.0895 16.0492 18.0667 15.792 18.0537C15.5348 18.0439 15.2777 18.0391 15.0205 18.0391C14.7601 18.0391 14.5046 18.0439 14.2539 18.0537C14.0033 18.0667 13.7526 18.0895 13.502 18.1221H13.4727C13.401 18.1221 13.3392 18.0944 13.2871 18.0391C13.2383 17.9837 13.2139 17.9235 13.2139 17.8584C13.2139 17.7933 13.235 17.738 13.2773 17.6924C13.3229 17.6436 13.3783 17.6159 13.4434 17.6094C13.694 17.5801 13.9398 17.5605 14.1807 17.5508L14.293 11.4912C14.0163 11.4814 13.7559 11.4701 13.5117 11.457C13.2708 11.4408 13.0544 11.4245 12.8623 11.4082C12.8428 11.4961 12.8184 11.6035 12.7891 11.7305C12.763 11.8574 12.7321 11.9925 12.6963 12.1357C12.6637 12.279 12.6296 12.4255 12.5938 12.5752C12.5579 12.7217 12.5205 12.86 12.4814 12.9902C12.4652 13.0456 12.4342 13.0911 12.3887 13.127C12.3464 13.1628 12.2975 13.1807 12.2422 13.1807C12.1673 13.1807 12.1055 13.1546 12.0566 13.1025C12.0078 13.0472 11.9834 12.987 11.9834 12.9219C11.9834 12.9121 11.9834 12.9007 11.9834 12.8877C11.9834 12.8714 11.9867 12.8584 11.9932 12.8486C12.042 12.6761 12.0908 12.4873 12.1396 12.2822C12.1885 12.0771 12.2324 11.8851 12.2715 11.7061C12.3138 11.527 12.348 11.3773 12.374 11.2568C12.4001 11.1364 12.4131 11.0745 12.4131 11.0713C12.4294 11.0094 12.4587 10.9606 12.501 10.9248C12.5465 10.889 12.6003 10.8711 12.6621 10.8711H12.7012C12.8704 10.8939 13.0755 10.9134 13.3164 10.9297C13.5605 10.946 13.8226 10.9606 14.1025 10.9736C14.3857 10.9834 14.6787 10.9915 14.9814 10.998C15.2842 11.0046 15.5804 11.0078 15.8701 11.0078C16.2249 11.0078 16.5521 11.0046 16.8516 10.998C17.151 10.9883 17.4017 10.9753 17.6035 10.959H17.623C17.6816 10.959 17.7354 10.9801 17.7842 11.0225C17.833 11.0615 17.8623 11.1104 17.8721 11.1689C17.8721 11.1722 17.877 11.1999 17.8867 11.252C17.8965 11.304 17.9095 11.374 17.9258 11.4619C17.9421 11.5498 17.9616 11.6507 17.9844 11.7646C18.0104 11.8786 18.0381 11.9974 18.0674 12.1211C18.0967 12.2415 18.1276 12.3652 18.1602 12.4922C18.196 12.6159 18.2334 12.7314 18.2725 12.8389ZM24.8545 12.8389C24.8545 12.8486 24.8561 12.8617 24.8594 12.8779C24.8626 12.891 24.8643 12.9056 24.8643 12.9219C24.8643 12.9902 24.8366 13.0505 24.7812 13.1025C24.7292 13.1546 24.6706 13.1807 24.6055 13.1807C24.5534 13.1807 24.5046 13.1644 24.459 13.1318C24.4167 13.0993 24.3857 13.0553 24.3662 13C24.3239 12.8763 24.2832 12.7445 24.2441 12.6045C24.2051 12.4613 24.1693 12.3213 24.1367 12.1846C24.1074 12.0479 24.0798 11.9193 24.0537 11.7988C24.0277 11.6784 24.0081 11.5758 23.9951 11.4912C23.8096 11.501 23.598 11.5091 23.3604 11.5156C23.1227 11.5189 22.8672 11.5205 22.5938 11.5205L22.4326 17.5508C22.6995 17.5605 22.9567 17.5801 23.2041 17.6094C23.2757 17.6159 23.3311 17.6436 23.3701 17.6924C23.4124 17.738 23.4336 17.7933 23.4336 17.8584C23.4336 17.9398 23.4059 18.0033 23.3506 18.0488C23.2985 18.0977 23.2432 18.1221 23.1846 18.1221H23.1553C22.8916 18.0895 22.6312 18.0667 22.374 18.0537C22.1169 18.0439 21.8597 18.0391 21.6025 18.0391C21.3421 18.0391 21.0866 18.0439 20.8359 18.0537C20.5853 18.0667 20.3346 18.0895 20.084 18.1221H20.0547C19.9831 18.1221 19.9212 18.0944 19.8691 18.0391C19.8203 17.9837 19.7959 17.9235 19.7959 17.8584C19.7959 17.7933 19.8171 17.738 19.8594 17.6924C19.9049 17.6436 19.9603 17.6159 20.0254 17.6094C20.276 17.5801 20.5218 17.5605 20.7627 17.5508L20.875 11.4912C20.5983 11.4814 20.3379 11.4701 20.0938 11.457C19.8529 11.4408 19.6364 11.4245 19.4443 11.4082C19.4248 11.4961 19.4004 11.6035 19.3711 11.7305C19.3451 11.8574 19.3141 11.9925 19.2783 12.1357C19.2458 12.279 19.2116 12.4255 19.1758 12.5752C19.14 12.7217 19.1025 12.86 19.0635 12.9902C19.0472 13.0456 19.0163 13.0911 18.9707 13.127C18.9284 13.1628 18.8796 13.1807 18.8242 13.1807C18.7493 13.1807 18.6875 13.1546 18.6387 13.1025C18.5898 13.0472 18.5654 12.987 18.5654 12.9219C18.5654 12.9121 18.5654 12.9007 18.5654 12.8877C18.5654 12.8714 18.5687 12.8584 18.5752 12.8486C18.624 12.6761 18.6729 12.4873 18.7217 12.2822C18.7705 12.0771 18.8145 11.8851 18.8535 11.7061C18.8958 11.527 18.93 11.3773 18.9561 11.2568C18.9821 11.1364 18.9951 11.0745 18.9951 11.0713C19.0114 11.0094 19.0407 10.9606 19.083 10.9248C19.1286 10.889 19.1823 10.8711 19.2441 10.8711H19.2832C19.4525 10.8939 19.6576 10.9134 19.8984 10.9297C20.1426 10.946 20.4046 10.9606 20.6846 10.9736C20.9678 10.9834 21.2607 10.9915 21.5635 10.998C21.8662 11.0046 22.1624 11.0078 22.4521 11.0078C22.807 11.0078 23.1341 11.0046 23.4336 10.998C23.7331 10.9883 23.9837 10.9753 24.1855 10.959H24.2051C24.2637 10.959 24.3174 10.9801 24.3662 11.0225C24.415 11.0615 24.4443 11.1104 24.4541 11.1689C24.4541 11.1722 24.459 11.1999 24.4688 11.252C24.4785 11.304 24.4915 11.374 24.5078 11.4619C24.5241 11.5498 24.5436 11.6507 24.5664 11.7646C24.5924 11.8786 24.6201 11.9974 24.6494 12.1211C24.6787 12.2415 24.7096 12.3652 24.7422 12.4922C24.778 12.6159 24.8154 12.7314 24.8545 12.8389Z" fill="white"/>
</svg>
