<svg width="23" height="9" viewBox="0 0 23 9" fill="none" xmlns="http://www.w3.org/2000/svg">
<path d="M7.26172 2.5C7.26172 2.24935 7.22054 2.03092 7.13818 1.84473C7.05583 1.65495 6.93945 1.49202 6.78906 1.35596C6.64225 1.21989 6.46501 1.10889 6.25732 1.02295C6.04964 0.933431 5.82227 0.863607 5.5752 0.813477C5.32812 0.759766 5.06315 0.723958 4.78027 0.706055C4.50098 0.68457 4.21273 0.673828 3.91553 0.673828C3.83317 0.673828 3.75798 0.673828 3.68994 0.673828C3.62191 0.673828 3.55745 0.677409 3.49658 0.68457L3.3999 4.33691C3.53597 4.36556 3.68457 4.38525 3.8457 4.396C4.00684 4.40674 4.17334 4.41211 4.34521 4.41211C4.55648 4.41211 4.7749 4.39958 5.00049 4.37451C5.22607 4.34945 5.44629 4.30827 5.66113 4.25098C5.87956 4.19368 6.08545 4.11849 6.27881 4.02539C6.47217 3.92871 6.64046 3.81055 6.78369 3.6709C6.9305 3.52767 7.04688 3.35938 7.13281 3.16602C7.21875 2.97266 7.26172 2.75065 7.26172 2.5ZM8.15332 5.8999C8.15332 5.90706 8.15511 5.92676 8.15869 5.95898C8.16227 5.98763 8.16406 6.0306 8.16406 6.08789C8.16406 6.37793 8.1193 6.64648 8.02979 6.89355C7.94385 7.14062 7.82031 7.35368 7.65918 7.53271C7.49805 7.70817 7.3029 7.84603 7.07373 7.94629C6.84456 8.04655 6.58854 8.09668 6.30566 8.09668H6.28955C6.02816 8.08952 5.7972 8.04655 5.59668 7.96777C5.39974 7.889 5.22607 7.78516 5.07568 7.65625C4.92887 7.52376 4.80534 7.36979 4.70508 7.19434C4.60482 7.01888 4.52425 6.83089 4.46338 6.63037C4.40251 6.42627 4.35775 6.21501 4.3291 5.99658C4.30404 5.77816 4.2915 5.56152 4.2915 5.34668C4.2915 5.28223 4.29329 5.21956 4.29688 5.15869C4.30046 5.09424 4.30225 5.03695 4.30225 4.98682C4.14111 4.98682 3.98356 4.97965 3.82959 4.96533C3.6792 4.95101 3.53239 4.93311 3.38916 4.91162L3.30859 7.69385C3.30859 7.77979 3.27995 7.84782 3.22266 7.89795C3.16895 7.9445 3.1027 7.96777 3.02393 7.96777C3.02035 7.96777 2.94694 7.96956 2.80371 7.97314C2.66406 7.97314 2.48324 7.97673 2.26123 7.98389C2.03923 7.99105 1.79395 8.00358 1.52539 8.02148C1.25684 8.03939 0.993652 8.06445 0.73584 8.09668H0.703613C0.621257 8.09668 0.553223 8.06803 0.499512 8.01074C0.445801 7.95703 0.418945 7.89437 0.418945 7.82275C0.418945 7.75114 0.44043 7.68848 0.483398 7.63477C0.529948 7.58105 0.58903 7.54883 0.660645 7.53809C0.793132 7.52018 0.927409 7.50586 1.06348 7.49512C1.20312 7.48438 1.33919 7.47363 1.47168 7.46289L1.59521 0.840332C1.33024 0.883301 1.12972 0.920898 0.993652 0.953125C0.857585 0.985352 0.78597 1.00146 0.778809 1.00146C0.753743 1.01937 0.728678 1.02832 0.703613 1.02832C0.621257 1.02832 0.553223 0.999674 0.499512 0.942383C0.445801 0.885091 0.418945 0.817057 0.418945 0.738281C0.418945 0.677409 0.436849 0.623698 0.472656 0.577148C0.508464 0.527018 0.556803 0.493001 0.617676 0.475098C0.628418 0.471517 0.703613 0.450033 0.843262 0.410645C0.98291 0.371257 1.1888 0.330078 1.46094 0.287109C1.73665 0.244141 2.07682 0.204753 2.48145 0.168945C2.88965 0.133138 3.36768 0.115234 3.91553 0.115234C4.26644 0.133138 4.60482 0.158203 4.93066 0.19043C5.26009 0.222656 5.56982 0.272786 5.85986 0.34082C6.1499 0.405273 6.41488 0.493001 6.65479 0.604004C6.89469 0.711426 7.10059 0.851074 7.27246 1.02295C7.44792 1.19482 7.58219 1.40251 7.67529 1.646C7.77197 1.8859 7.82031 2.17057 7.82031 2.5C7.82031 2.76139 7.77913 3.00846 7.69678 3.24121C7.618 3.47038 7.507 3.67985 7.36377 3.86963C7.22054 4.05583 7.04688 4.21875 6.84277 4.3584C6.64225 4.49447 6.42204 4.60189 6.18213 4.68066C6.17497 4.76302 6.1696 4.84717 6.16602 4.93311C6.16243 5.01904 6.16064 5.10677 6.16064 5.19629C6.16064 5.27148 6.16243 5.37712 6.16602 5.51318C6.1696 5.64925 6.17855 5.79785 6.19287 5.95898C6.20719 6.12012 6.22868 6.28483 6.25732 6.45312C6.28955 6.62142 6.33073 6.77539 6.38086 6.91504C6.43457 7.05111 6.50081 7.1639 6.57959 7.25342C6.65837 7.33936 6.75326 7.38232 6.86426 7.38232C7.00749 7.38232 7.12565 7.33398 7.21875 7.2373C7.31185 7.14062 7.38704 7.02425 7.44434 6.88818C7.50163 6.74854 7.54102 6.60531 7.5625 6.4585C7.58757 6.31169 7.6001 6.18815 7.6001 6.08789C7.6001 6.0485 7.59831 6.01628 7.59473 5.99121C7.59115 5.96615 7.58936 5.94287 7.58936 5.92139C7.58936 5.83903 7.618 5.77279 7.67529 5.72266C7.73617 5.67253 7.80241 5.64746 7.87402 5.64746C7.94564 5.64746 8.0083 5.67253 8.06201 5.72266C8.11572 5.76921 8.14616 5.82829 8.15332 5.8999ZM15.6997 2.32275C15.6997 2.3335 15.7015 2.34782 15.7051 2.36572C15.7087 2.38005 15.7104 2.39616 15.7104 2.41406C15.7104 2.48926 15.68 2.5555 15.6191 2.61279C15.5618 2.67008 15.4974 2.69873 15.4258 2.69873C15.3685 2.69873 15.3148 2.68083 15.2646 2.64502C15.2181 2.60921 15.1841 2.56087 15.1626 2.5C15.116 2.36393 15.0713 2.21891 15.0283 2.06494C14.9854 1.90739 14.946 1.75342 14.9102 1.60303C14.8779 1.45264 14.8475 1.3112 14.8188 1.17871C14.7902 1.04622 14.7687 0.933431 14.7544 0.840332C14.5503 0.851074 14.3175 0.860026 14.0562 0.867188C13.7948 0.870768 13.5137 0.872559 13.2129 0.872559L13.0356 7.50586C13.3293 7.5166 13.6121 7.53809 13.8843 7.57031C13.9631 7.57747 14.0239 7.60791 14.0669 7.66162C14.1134 7.71175 14.1367 7.77262 14.1367 7.84424C14.1367 7.93376 14.1063 8.00358 14.0454 8.05371C13.9881 8.10742 13.9272 8.13428 13.8628 8.13428H13.8306C13.5405 8.09847 13.2541 8.0734 12.9712 8.05908C12.6883 8.04834 12.4054 8.04297 12.1226 8.04297C11.8361 8.04297 11.555 8.04834 11.2793 8.05908C11.0036 8.0734 10.7279 8.09847 10.4521 8.13428H10.4199C10.3411 8.13428 10.2731 8.10384 10.2158 8.04297C10.1621 7.9821 10.1353 7.91585 10.1353 7.84424C10.1353 7.77262 10.1585 7.71175 10.2051 7.66162C10.2552 7.60791 10.3161 7.57747 10.3877 7.57031C10.6634 7.53809 10.9338 7.5166 11.1987 7.50586L11.3223 0.840332C11.0179 0.82959 10.7314 0.817057 10.4629 0.802734C10.1979 0.784831 9.9598 0.766927 9.74854 0.749023C9.72705 0.845703 9.7002 0.963867 9.66797 1.10352C9.63932 1.24316 9.60531 1.39176 9.56592 1.54932C9.53011 1.70687 9.49251 1.868 9.45312 2.03271C9.41374 2.19385 9.37256 2.34603 9.32959 2.48926C9.31169 2.55013 9.27767 2.60026 9.22754 2.63965C9.18099 2.67904 9.12728 2.69873 9.06641 2.69873C8.98405 2.69873 8.91602 2.67008 8.8623 2.61279C8.80859 2.55192 8.78174 2.48568 8.78174 2.41406C8.78174 2.40332 8.78174 2.39079 8.78174 2.37646C8.78174 2.35856 8.78532 2.34424 8.79248 2.3335C8.84619 2.14372 8.8999 1.93604 8.95361 1.71045C9.00732 1.48486 9.05566 1.2736 9.09863 1.07666C9.14518 0.87972 9.18278 0.715007 9.21143 0.58252C9.24007 0.450033 9.25439 0.381999 9.25439 0.378418C9.2723 0.310384 9.30452 0.256673 9.35107 0.217285C9.4012 0.177897 9.46029 0.158203 9.52832 0.158203H9.57129C9.75749 0.183268 9.98307 0.204753 10.248 0.222656C10.5166 0.24056 10.8049 0.256673 11.1128 0.270996C11.4243 0.281738 11.7466 0.29069 12.0796 0.297852C12.4126 0.305013 12.7384 0.308594 13.0571 0.308594C13.4474 0.308594 13.8073 0.305013 14.1367 0.297852C14.4661 0.287109 14.7419 0.272786 14.9639 0.254883H14.9854C15.0498 0.254883 15.1089 0.278158 15.1626 0.324707C15.2163 0.367676 15.2485 0.421387 15.2593 0.48584C15.2593 0.489421 15.2646 0.519857 15.2754 0.577148C15.2861 0.63444 15.3005 0.711426 15.3184 0.808105C15.3363 0.904785 15.3577 1.01579 15.3828 1.14111C15.4115 1.26644 15.4419 1.39714 15.4741 1.5332C15.5063 1.66569 15.5404 1.80176 15.5762 1.94141C15.6156 2.07747 15.6567 2.20459 15.6997 2.32275ZM22.9399 2.32275C22.9399 2.3335 22.9417 2.34782 22.9453 2.36572C22.9489 2.38005 22.9507 2.39616 22.9507 2.41406C22.9507 2.48926 22.9202 2.5555 22.8594 2.61279C22.8021 2.67008 22.7376 2.69873 22.666 2.69873C22.6087 2.69873 22.555 2.68083 22.5049 2.64502C22.4583 2.60921 22.4243 2.56087 22.4028 2.5C22.3563 2.36393 22.3115 2.21891 22.2686 2.06494C22.2256 1.90739 22.1862 1.75342 22.1504 1.60303C22.1182 1.45264 22.0877 1.3112 22.0591 1.17871C22.0304 1.04622 22.009 0.933431 21.9946 0.840332C21.7905 0.851074 21.5578 0.860026 21.2964 0.867188C21.035 0.870768 20.7539 0.872559 20.4531 0.872559L20.2759 7.50586C20.5695 7.5166 20.8524 7.53809 21.1245 7.57031C21.2033 7.57747 21.2642 7.60791 21.3071 7.66162C21.3537 7.71175 21.377 7.77262 21.377 7.84424C21.377 7.93376 21.3465 8.00358 21.2856 8.05371C21.2284 8.10742 21.1675 8.13428 21.103 8.13428H21.0708C20.7808 8.09847 20.4943 8.0734 20.2114 8.05908C19.9285 8.04834 19.6457 8.04297 19.3628 8.04297C19.0763 8.04297 18.7952 8.04834 18.5195 8.05908C18.2438 8.0734 17.9681 8.09847 17.6924 8.13428H17.6602C17.5814 8.13428 17.5133 8.10384 17.4561 8.04297C17.4023 7.9821 17.3755 7.91585 17.3755 7.84424C17.3755 7.77262 17.3988 7.71175 17.4453 7.66162C17.4954 7.60791 17.5563 7.57747 17.6279 7.57031C17.9036 7.53809 18.174 7.5166 18.439 7.50586L18.5625 0.840332C18.2581 0.82959 17.9717 0.817057 17.7031 0.802734C17.4382 0.784831 17.2 0.766927 16.9888 0.749023C16.9673 0.845703 16.9404 0.963867 16.9082 1.10352C16.8796 1.24316 16.8455 1.39176 16.8062 1.54932C16.7703 1.70687 16.7327 1.868 16.6934 2.03271C16.654 2.19385 16.6128 2.34603 16.5698 2.48926C16.5519 2.55013 16.5179 2.60026 16.4678 2.63965C16.4212 2.67904 16.3675 2.69873 16.3066 2.69873C16.2243 2.69873 16.1562 2.67008 16.1025 2.61279C16.0488 2.55192 16.022 2.48568 16.022 2.41406C16.022 2.40332 16.022 2.39079 16.022 2.37646C16.022 2.35856 16.0256 2.34424 16.0327 2.3335C16.0864 2.14372 16.1401 1.93604 16.1938 1.71045C16.2476 1.48486 16.2959 1.2736 16.3389 1.07666C16.3854 0.87972 16.423 0.715007 16.4517 0.58252C16.4803 0.450033 16.4946 0.381999 16.4946 0.378418C16.5125 0.310384 16.5448 0.256673 16.5913 0.217285C16.6414 0.177897 16.7005 0.158203 16.7686 0.158203H16.8115C16.9977 0.183268 17.2233 0.204753 17.4883 0.222656C17.7568 0.24056 18.0451 0.256673 18.353 0.270996C18.6646 0.281738 18.9868 0.29069 19.3198 0.297852C19.6528 0.305013 19.9787 0.308594 20.2974 0.308594C20.6877 0.308594 21.0475 0.305013 21.377 0.297852C21.7064 0.287109 21.9821 0.272786 22.2041 0.254883H22.2256C22.29 0.254883 22.3491 0.278158 22.4028 0.324707C22.4565 0.367676 22.4888 0.421387 22.4995 0.48584C22.4995 0.489421 22.5049 0.519857 22.5156 0.577148C22.5264 0.63444 22.5407 0.711426 22.5586 0.808105C22.5765 0.904785 22.598 1.01579 22.623 1.14111C22.6517 1.26644 22.6821 1.39714 22.7144 1.5332C22.7466 1.66569 22.7806 1.80176 22.8164 1.94141C22.8558 2.07747 22.897 2.20459 22.9399 2.32275Z" fill="#4267B2"/>
</svg>
